<svg xmlns="http://www.w3.org/2000/svg" width="1500" height="1500"><path d="M502 459c126.324 0 126.324 0 143.68 16.566 14.883 15.61 16.687 36 16.636 56.605-.003 2.626.02 5.252.045 7.878.111 29.732.111 29.732-9.08 39.842-7.472 7.057-15.123 9.685-25.281 10.109v2l3.813.625c11.18 2.549 19.353 8.842 25.496 18.414 4.46 8.202 4.985 16.826 4.918 25.989v3.225c0 3.49-.016 6.98-.032 10.47l-.008 7.292a8379.62 8379.62 0 0 1-.05 19.131c-.024 7.663-.033 15.326-.045 22.988-.019 11.622-.057 23.244-.092 34.866h-67l-.148-22.8c-.036-4.781-.072-9.562-.11-14.343-.06-7.58-.118-15.16-.164-22.74-.037-6.113-.083-12.228-.136-18.342-.019-2.327-.034-4.654-.045-6.981-.017-3.272-.046-6.543-.078-9.815l-.007-2.883c-.092-7.475-.248-15.608-4.125-22.159-4.446-2.981-4.446-2.981-16.187-3.937v124h-72V459Zm72 48v60c6.215.09 6.215.09 11.75-1.313l2.234-.738c2.242-1.055 3.399-2.081 5.016-3.949 2.383-7.516 2.34-15.09 2.316-22.911-.003-2.15.02-4.3.045-6.45.034-7.1.001-13.262-3.361-19.639-6.28-5.211-9.753-5-18-5Zm115-48c132.46 0 132.46 0 151.262 17.996 21.245 24.492 15.898 62.248 15.87 92.367l.004 8.213c.002 5.688 0 11.376-.006 17.065-.005 6.512-.003 13.024.002 19.536.005 5.669.005 11.338.003 17.006-.002 3.353-.002 6.705.001 10.057.046 65.439.046 65.439-14.136 79.76-2.845 2.33-5.788 4.216-9 6l-2.012 1.148C794.747 746.511 708.508 735 689 735V459Zm73 48v180c12.343-.793 12.343-.793 18-6 3.573-9.29 3.149-19.297 3.145-29.092l.01-4.25c.01-3.829.012-7.657.012-11.485.001-2.396.003-4.791.006-7.187.009-8.367.013-16.734.012-25.1 0-7.785.01-15.57.026-23.354.013-6.698.018-13.397.018-20.095 0-3.994.002-7.988.013-11.982.01-3.756.01-7.512.003-11.268-.002-2.026.006-4.053.015-6.079.377-10.408.377-10.408-3.575-19.654C774.01 506.394 769.684 507 762 507Zm119-48h73v220h43v56H881V459Z" fill="#FB0202"/><path d="M754 189c3.486 1.582 6.725 3.524 10 5.5l2.844 1.672c1.876 1.103 3.75 2.211 5.62 3.324A567.721 567.721 0 0 0 782 205c3.906 2.231 7.811 4.464 11.715 6.7a5363.62 5363.62 0 0 0 27.785 15.8c12.563 7.091 25.088 14.249 37.602 21.426a2926.481 2926.481 0 0 0 28.523 16.137c8.136 4.542 16.234 9.14 24.285 13.83 6.063 3.527 12.165 6.98 18.278 10.42a1635.653 1635.653 0 0 1 27.48 15.843 549.609 549.609 0 0 0 16.617 9.368c4.494 2.444 8.949 4.958 13.403 7.476l2.96 1.672c8.384 4.751 16.714 9.594 25.019 14.482a548.19 548.19 0 0 0 16.613 9.365c4.52 2.461 8.994 5.004 13.47 7.543l6.047 3.426 3.1 1.757c3.057 1.73 6.119 3.452 9.181 5.173 9.644 5.424 19.243 10.882 28.668 16.68 3.657 2.138 7.465 4.008 11.254 5.902v402c-18.872 10.784-37.75 21.55-56.695 32.203-9.733 5.48-19.423 11.018-29.055 16.672-9.717 5.701-19.532 11.208-29.391 16.66-15.968 8.832-31.752 17.978-47.552 27.105-7.69 4.438-15.41 8.82-23.159 13.155A4920.03 4920.03 0 0 0 879.9 917.49a4162.576 4162.576 0 0 1-21.826 12.376 4638.05 4638.05 0 0 0-24.735 14.095c-8.335 4.773-16.699 9.49-25.089 14.165a1394.578 1394.578 0 0 0-24.625 14.063l-2.987 1.74a989.45 989.45 0 0 0-14.189 8.431l-2.633 1.578a367.652 367.652 0 0 0-4.843 2.952l-2.172 1.295-1.87 1.142c-3.509 1.225-6.189.028-9.429-1.518l-2.65-1.511-3.012-1.702-3.215-1.845-3.35-1.9a3213.787 3213.787 0 0 1-6.892-3.92c-4.142-2.363-8.292-4.71-12.444-7.055a6022.412 6022.412 0 0 1-5.75-3.252 1874.121 1874.121 0 0 0-17.564-9.81c-6.362-3.516-12.641-7.152-18.894-10.86-8.85-5.232-17.822-10.25-26.781-15.293a10884.91 10884.91 0 0 1-14.138-7.972l-2.838-1.604a5157.375 5157.375 0 0 1-24.632-14.043 2740.988 2740.988 0 0 0-25.28-14.291 3023.603 3023.603 0 0 1-39.515-22.48l-6.735-3.895-3.366-1.947c-6.862-3.96-13.76-7.844-20.7-11.662-6.122-3.383-12.153-6.911-18.183-10.453-9.819-5.764-19.732-11.336-29.697-16.843a1642.628 1642.628 0 0 1-23.127-13.037c-4.613-2.648-9.233-5.28-13.868-7.89l-3.124-1.76a4226.528 4226.528 0 0 0-5.935-3.332l-2.738-1.54-2.388-1.34L406 795l-1.979-.69c-2.631-1.133-4.137-2.129-6.021-4.31-1.249-5.25-1.045-10.503-.962-15.863-.004-1.662-.01-3.325-.02-4.987-.019-4.573.013-9.144.053-13.717.035-4.929.023-9.858.017-14.787-.004-8.541.021-17.082.066-25.623.065-12.35.086-24.699.096-37.048.018-20.035.07-40.07.146-60.105.074-19.464.13-38.928.165-58.392l.006-3.634.03-18.052c.083-49.931.224-99.861.403-149.792l2.103-1.177 9.64-5.397c1.09-.61 2.18-1.222 3.305-1.85 21.656-12.06 21.656-12.06 43.024-24.618 4.243-2.568 8.546-4.984 12.912-7.333 12.486-6.728 24.786-13.777 37.06-20.88 10.005-5.786 20.06-11.481 30.13-17.152 4.778-2.693 9.552-5.393 14.326-8.093 5.795-3.277 11.59-6.552 17.39-9.82a2883 2883 0 0 0 31.848-18.207c14.66-8.513 29.446-16.804 44.209-25.136A7756.078 7756.078 0 0 0 685 225c4.624-2.647 9.25-5.293 13.875-7.938l1.795-1.026a4029.677 4029.677 0 0 1 27.695-15.706c3.872-2.178 7.73-4.361 11.514-6.69l3.183-1.952 2.536-1.614c3.234-1.446 4.86-1.62 8.402-1.074Zm-4 34c-2.521 1.054-2.521 1.054-5.188 3-6.397 4.206-12.993 7.973-19.687 11.688l-6.57 3.66-3.314 1.844c-5.007 2.793-10 5.61-14.991 8.433l-2.845 1.609a6960.042 6960.042 0 0 0-31.302 17.853 4201.394 4201.394 0 0 1-23.165 13.163A6332.579 6332.579 0 0 0 610 303c-3.458 1.98-6.916 3.96-10.375 5.938l-2.586 1.479c-4.7 2.685-9.406 5.358-14.121 8.017l-3.086 1.74a4796.274 4796.274 0 0 1-5.843 3.287c-4.364 2.457-8.695 4.95-12.977 7.547-4.322 2.61-8.718 5.048-13.16 7.447-12.911 6.993-25.708 14.214-38.328 21.72-7.266 4.302-14.646 8.397-22.02 12.51a2243.682 2243.682 0 0 0-22.655 12.826c-7.748 4.44-15.52 8.832-23.3 13.214l-2.768 1.56-2.435 1.371L434 403l-2.605 1.205c-2.651 1.588-2.651 1.588-3.036 4.503l-.022 3.35-.062 3.862.01 4.268c-.015 1.505-.032 3.01-.05 4.516-.044 4.147-.057 8.293-.065 12.44-.013 4.469-.055 8.937-.092 13.406a6708.141 6708.141 0 0 0-.154 32.392c-.016 5.084-.039 10.168-.06 15.252-.071 16.898-.13 33.797-.155 50.696l-.005 3.279-.005 3.286a350569.359 350569.359 0 0 1-.015 9.898c-.028 17.66-.131 35.319-.266 52.979-.138 18.127-.211 36.255-.22 54.383-.008 10.18-.043 20.358-.148 30.538-.09 8.67-.121 17.338-.077 26.009.02 4.424.014 8.843-.067 13.267-1.097 16.627-1.097 16.627 3.758 31.835 3.932 3.591 8.214 5.472 13.274 6.971 3.012.971 5.576 2.553 8.261 4.204 1.829 1.03 3.658 2.059 5.488 3.086l5.95 3.352 2.818 1.586c3.189 1.8 6.368 3.616 9.545 5.437 6.007 3.44 12.034 6.847 18.063 10.25a4688.917 4688.917 0 0 1 24.678 14.023c3.834 2.193 7.666 4.387 11.498 6.583a20804.938 20804.938 0 0 0 12.31 7.048 2657.054 2657.054 0 0 0 25.076 14.159c9.644 5.379 19.222 10.865 28.78 16.398 9.88 5.716 19.813 11.34 29.76 16.942a8103.025 8103.025 0 0 1 49.419 28.076c15.24 8.725 30.499 17.419 45.826 25.99l2.023 1.133c1.275.713 2.552 1.424 3.83 2.132a242.91 242.91 0 0 1 10.319 6.11l2.329 1.435c1.483.917 2.957 1.85 4.42 2.8l2.024 1.245 1.77 1.128c3.518 1.028 6.323-1.164 9.404-2.774l2.69-1.514 3.041-1.707 3.24-1.832 3.376-1.9c7.787-4.388 15.553-8.81 23.308-13.254A3351.9 3351.9 0 0 1 812.5 920.5 6084.198 6084.198 0 0 0 845 902a6370.426 6370.426 0 0 1 34.921-19.863c8.305-4.69 16.587-9.42 24.863-14.159a3161.01 3161.01 0 0 1 21.703-12.32c7.904-4.442 15.757-8.904 23.404-13.78 3.628-2.192 7.335-4.206 11.062-6.225 5.327-2.89 10.623-5.836 15.922-8.778l1.775-.985c8.58-4.767 17.13-9.588 25.643-14.475 6.322-3.629 12.667-7.215 19.02-10.79a1550.816 1550.816 0 0 0 27.18-15.693 450.46 450.46 0 0 1 15.364-8.638l3.5-1.878L1072 773c.206-46.651.365-93.303.46-139.955a143254.273 143254.273 0 0 1 .042-19.836c.039-17.756.11-35.512.192-53.269.084-18.213.135-36.427.153-54.64.012-11.243.051-22.486.124-33.729.048-7.705.062-15.41.05-23.114-.005-4.449.004-8.896.052-13.345.044-4.072.046-8.142.015-12.214-.004-1.474.008-2.948.036-4.421.38-7.932.38-7.932-3.1-14.651-2.288-1.554-4.49-2.727-7.024-3.826l-2.863-1.652-2.45-1.286A323.323 323.323 0 0 1 1046 390.5a459.01 459.01 0 0 0-13.867-7.797C1010.239 370.801 988.626 358.38 967 346c-4.624-2.647-9.25-5.293-13.875-7.938l-1.807-1.033a4134.325 4134.325 0 0 0-24.068-13.654 1521.567 1521.567 0 0 1-23.438-13.5c-9.03-5.296-18.143-10.407-27.332-15.422-8.84-4.827-17.546-9.87-26.168-15.078a348.967 348.967 0 0 0-15.25-8.723c-10.466-5.647-20.825-11.492-31.14-17.41-6.908-3.957-13.849-7.859-20.781-11.773-4.2-2.372-8.398-4.747-12.594-7.125l-3.164-1.792a8898.476 8898.476 0 0 1-6.021-3.414l-2.749-1.556-2.413-1.368L754 225l-2.141-1.228L750 223Z" fill="#0BC8F4"/><path d="M754 244c2.297 1.059 2.297 1.059 4.75 2.438l2.89 1.62c4.718 2.727 9.412 5.494 14.101 8.268a415.352 415.352 0 0 0 14.286 8.069c10.948 5.912 21.772 12.039 32.527 18.294 12.297 7.143 24.698 14.104 37.114 21.038l3.36 1.877c2.124 1.186 4.248 2.37 6.373 3.552a539.54 539.54 0 0 1 16.34 9.488c3.115 1.87 6.273 3.652 9.447 5.418a14385.324 14385.324 0 0 1 6.397 3.584c12.619 7.075 25.203 14.207 37.712 21.475 6.783 3.937 13.613 7.785 20.455 11.619 13.71 7.685 27.37 15.442 40.916 23.415a547.707 547.707 0 0 0 16.568 9.342c35.64 19.378 35.64 19.378 39.764 23.503.098 1.845.124 3.694.123 5.542l.006 3.67-.009 4.082.003 4.296c.002 3.954-.002 7.908-.007 11.862-.004 4.257-.003 8.514-.002 12.772 0 7.381-.003 14.763-.008 22.145-.008 10.673-.011 21.345-.012 32.018-.002 17.315-.01 34.629-.019 51.943-.009 16.823-.016 33.647-.02 50.47v3.14l-.005 15.595c-.01 43.155-.028 86.31-.05 129.465l-10.104 5.775-2.874 1.644A3606.939 3606.939 0 0 1 1024.5 782.5a4608.59 4608.59 0 0 0-25.078 14.262A2056.755 2056.755 0 0 1 984 805.5c-9.7 5.44-19.347 10.975-29 16.5a9318.911 9318.911 0 0 1-53.917 30.644c-10.667 6.011-21.315 12.05-31.9 18.203-6.97 4.045-13.984 8.009-21.003 11.966A4283.174 4283.174 0 0 0 825 896a5315.466 5315.466 0 0 1-25.813 14.688l-2.794 1.578a6351.53 6351.53 0 0 1-14.475 8.148l-6.043 3.399-2.915 1.631c-4.106 2.313-8.17 4.643-12.116 7.22l-1.816 1.18a285.723 285.723 0 0 0-4.505 3.058C752 938 752 938 749.593 937.43L747 936l-3.18-1.707c-1.233-.699-2.465-1.4-3.695-2.106l-4.293-2.437-2.345-1.336a2529.196 2529.196 0 0 0-7.913-4.476c-36.644-20.664-36.644-20.664-49.957-28.805-3.828-2.298-7.756-4.408-11.681-6.535-4.92-2.677-9.801-5.42-14.686-8.16l-3.285-1.843c-3.323-1.863-6.644-3.729-9.965-5.595l-2.974-1.67a3281.631 3281.631 0 0 1-36.17-20.66c-8.687-5.021-17.437-9.923-26.204-14.805-6.81-3.802-13.533-7.715-20.175-11.803-3.77-2.28-7.65-4.357-11.523-6.456-4.967-2.7-9.897-5.467-14.829-8.231l-3.294-1.845a2794.83 2794.83 0 0 1-23.018-13.062c-4.477-2.566-8.96-5.119-13.458-7.648l-2.929-1.648a2566.936 2566.936 0 0 0-5.384-3.018c-1.78-1.001-3.54-2.04-5.281-3.11-2.939-1.712-5.931-2.884-9.115-4.073-6.408-2.667-12.136-5.568-16.646-10.971-3.827-9.597-2.84-20.77-2.553-30.93.095-4.26.062-8.52.046-12.782-.012-7.372.057-14.74.18-22.11.18-10.657.237-21.31.265-31.968a5595.2 5595.2 0 0 1 .402-51.872c.202-16.79.358-33.58.452-50.37l.017-3.14.084-15.594c.228-43.08.615-86.157 1.107-129.234l1.991-1.125 9.036-5.105 3.133-1.77c7.627-4.31 15.24-8.644 22.84-13a6738.402 6738.402 0 0 1 37-21 7623.726 7623.726 0 0 0 41.376-23.499c5.414-3.098 10.83-6.19 16.246-9.285 3.667-2.095 7.334-4.19 11-6.29a4055.647 4055.647 0 0 1 21.44-12.176A6465.916 6465.916 0 0 0 642 304c16.035-9.177 32.083-18.33 48.175-27.406 2.935-1.656 5.868-3.314 8.802-4.973l2.994-1.693 5.884-3.328c4.178-2.363 8.358-4.722 12.547-7.065l2.027-1.134c1.277-.714 2.555-1.427 3.834-2.138a280.041 280.041 0 0 0 10.319-6.072l2.329-1.42a298.338 298.338 0 0 0 4.42-2.762c6.216-3.795 6.216-3.795 10.669-2.009Zm-8.383 36.352-2.753 1.56-2.989 1.713-3.083 1.754a2176.634 2176.634 0 0 0-25.457 14.774 547.234 547.234 0 0 1-16.589 9.353c-4.652 2.53-9.261 5.137-13.871 7.744l-3.015 1.703a995.728 995.728 0 0 0-20.017 11.624c-4.577 2.724-9.23 5.288-13.911 7.828-5.04 2.743-10.05 5.543-15.057 8.345l-3.3 1.846a999.43 999.43 0 0 0-21.035 12.142 371.942 371.942 0 0 1-13.403 7.543c-7.069 3.873-14.036 7.929-21.028 11.937-5.66 3.244-11.321 6.482-16.984 9.72l-1.802 1.03a7109.7 7109.7 0 0 1-41.264 23.376l-3.01 1.696a4046.98 4046.98 0 0 1-5.548 3.12 168.162 168.162 0 0 0-5.176 3.042c-2.601 1.407-4.793 2.333-7.554 3.264-5.078 1.949-9.407 4.147-12.771 8.534-3.054 8.702-2.138 18.515-1.889 27.623.087 3.833.074 7.666.073 11.5.012 6.635.087 13.267.204 19.9.17 9.591.244 19.181.296 28.773.087 15.563.25 31.124.46 46.686.206 15.113.374 30.226.495 45.34l.023 2.824.11 14.032c.3 38.776.723 77.549 1.228 116.322l2.125 1.189 9.707 5.432 3.342 1.87c15.143 8.476 30.208 17.07 45.106 25.97a444.575 444.575 0 0 0 15.903 9.012c14.265 7.733 28.377 15.747 42.297 24.088a419.758 419.758 0 0 0 15.698 8.907c4.884 2.651 9.726 5.376 14.572 8.095l3.277 1.837 6.704 3.764 6.308 3.54c11.531 6.464 22.997 13.02 34.343 19.808 6.125 3.654 12.344 7.098 18.618 10.488 8.691 4.766 17.34 9.606 25.944 14.528 1.78 1.019 3.562 2.035 5.345 3.05 4.16 2.368 8.297 4.764 12.387 7.254l2.19 1.306c1.34.8 2.669 1.615 3.986 2.448 2.842 1.677 4.613 2.489 7.921 2.027 4.772-2.386 9.339-5.06 13.914-7.8a1029.815 1029.815 0 0 1 27.25-15.563c7.282-4.02 14.542-8.056 21.688-12.313 9.954-5.93 20.094-11.525 30.211-17.17 12.707-7.098 25.362-14.275 37.914-21.642 9.714-5.699 19.524-11.205 29.38-16.653 9.501-5.254 18.937-10.615 28.35-16.025 4.295-2.467 8.595-4.926 12.895-7.385l2.617-1.497c5.472-3.127 10.957-6.23 16.448-9.323a1710.154 1710.154 0 0 0 30.053-17.31c7.09-4.166 14.252-8.025 21.507-11.932V433l-22-12a1762.084 1762.084 0 0 1-27.436-15.629c-12.197-7.074-24.499-13.967-36.794-20.87-11.165-6.268-22.273-12.636-33.385-18.998A5707.752 5707.752 0 0 0 875.5 348.5c-29.965-16.923-29.965-16.923-42.47-24.491-4.274-2.58-8.606-5.013-13.003-7.376-14.8-7.983-29.402-16.336-44.027-24.633l-2.223-1.26c-6.695-3.798-13.35-7.64-19.886-11.709-3.445-1.879-5.07-.503-8.274 1.32Z" fill="#0BC8F4"/><path d="m874 1086 2 4c-5.924 2.505-11.855 4.97-17.867 7.254C832.2 1107.162 807.812 1120.76 786 1138c3.21 2.632 6.5 5.082 9.91 7.45 6.816 4.745 13.074 9.806 19.09 15.55l1.852 1.66c15.547 14.447 23.657 35.006 24.46 55.965-.781 26.886-11.545 54.002-31.214 72.695-14.972 11.989-33.173 20.762-52.602 20.883l-2.18.017c-1.52.01-3.04.016-4.56.02-2.287.01-4.573.04-6.86.072-11.871.089-22.336-1.413-32.958-7.062l-2.052-1.065c-21.347-11.24-39.33-28.276-47.761-51.372-2.603-8.467-3.556-16.998-4.125-25.813l-.184-2.8c-.069-2.426.02-4.779.184-7.2l.207-3.523c1.417-15.85 7.139-29.808 16.793-42.477l2.04-2.707c10.418-13.415 22.568-22.221 37.96-29.293-8.542-9.425-20.048-15.766-31-22l-2.714-1.556c-17.55-9.98-35.568-17.973-54.286-25.444l1-3c37.133-.578 85.935.628 115.938 26 2.84 2.304 3.697 2.96 7.437 3.375 4.288-1.627 7.752-3.879 11.563-6.41 25.356-16.268 57.507-21.142 87.062-22.965l2.512-.167c7.499-.491 14.971-.892 22.488-.833Zm-173 97c-10.47 12.7-15.16 28.601-14 45 2.788 18.206 10.036 32.708 25 44 13.59 9.502 29.896 13.937 46.383 11.5 14.815-2.865 26.315-8.384 36.617-19.5l1.645-1.664c11.1-11.753 14.9-26.333 14.772-42.122-.56-17.736-7.935-31.776-20.702-43.843-11.954-10.44-25.189-14.54-40.84-14.621l-2.977-.063c-18.245-.096-33.796 8.087-45.898 21.313ZM142 799c3.443 1.963 6.382 4.099 9.375 6.688 18.025 14.414 40.898 19.539 62.883 24.877 28.66 6.97 54.837 16.191 71.41 42.501 10.506 17.648 21.15 42.791 17.887 63.801-1.61 6.235-4.17 10.823-9.61 14.535-17.258 9.761-44.763 7.814-63.273 2.727-4.73-1.454-9.223-2.955-13.672-5.129l-3.102-1.492c-7.807-3.968-14.395-8.66-20.898-14.508l-2.11-1.86C160.925 903.093 144.902 851.123 142 811c-.06-2.187-.088-4.375-.063-6.563l.028-3.128L142 799ZM437 1022c11.024 9.334 20.795 19.387 28 32l1.098 1.898c2.73 5.412 3.033 11.613 1.175 17.344-6.508 14.023-23.427 22.307-37.186 27.666-27.22 9.96-54.245 9.644-80.876-2.142-24.285-12.473-46.745-32.938-64.211-53.766l-1.363-1.624a503.7 503.7 0 0 1-19.012-24.188l-1.75-2.336-1.586-2.184-1.415-1.929L259 1011l1-3 3.277.875c24.599 6.13 47.419 2.539 71.723-2.875a7147.794 7147.794 0 0 0 15.397-3.375C383.91 995.3 410.103 1000.32 437 1022ZM1136 783c3 1 3 1 4.315 3l1.322 2.645 1.488 2.96 1.563 3.207 1.617 3.286c19.052 39.212 36.246 89.097 22.886 132.53-4.68 12.96-12.205 23.315-21.82 32.987a172.986 172.986 0 0 0-3.46 3.623c-10.818 11.412-25.845 23.276-41.974 24.887-7.725.095-13.164-1.306-18.832-6.656-18.273-21.426-22.772-53.327-21.105-80.469 1.53-16.848 12.32-32.403 23-45l1.414-1.697c4.89-5.866 9.89-11.602 15.142-17.147 13.426-14.204 23.979-29.62 30.085-48.273 1.154-3.465 2.64-6.656 4.359-9.883ZM145 589c2 1 2 1 3.008 3.816l1.117 3.746c5.503 17.35 14.748 31.413 27.333 44.52 2.209 2.32 3.513 3.831 4.542 6.918 1.324.685 2.658 1.35 4 2 1.605 1.629 1.605 1.629 3.188 3.563 2.572 3.054 5.24 5.863 8.125 8.625 17.41 17.292 28.828 38.603 29 63.437.046 21.633-5.127 50.729-20.657 67.043-4.68 3.764-10.29 6.077-16.37 5.715-22.871-3.831-45.57-21.415-59.411-39.668-6.8-9.846-11.223-18.985-13.875-30.715l-.528-2.08c-.684-4.23-.676-8.419-.71-12.697l-.025-2.915c-.014-2.043-.024-4.087-.032-6.13a678.658 678.658 0 0 0-.062-6.14c-.465-31.923 8.396-59.49 20.845-88.498a602.749 602.749 0 0 0 3.117-7.432l.803-1.93a1552.42 1552.42 0 0 0 2.197-5.32c1.247-2.554 2.24-4.058 4.395-5.858ZM229 424h3c1.228 2.455 1.333 4.753 1.594 7.457 2.49 25.458 13.564 45.364 26.605 66.809C270.797 515.71 270.797 515.71 274 524l1.328 3.348c9.064 23.936 6.056 45.47-3.933 68.433-6.568 14.571-15.877 33.09-30.829 40.41-6.318 1.991-13.483 1.562-19.546-1.093-22.757-12.37-40.533-37.462-48.02-62.098-8.674-39.755 9.964-81.323 30.94-114.024 5.858-8.894 11.885-17.625 18.51-25.966 1.523-1.974 2.911-4.004 4.3-6.072L229 424Z" fill="#090"/><path d="M999.059 1115.83c5.807 3.16 11.735 6.053 17.691 8.92l2.868 1.394c15.545 7.432 30.466 11.03 47.644 11.645C1071 1138 1071 1138 1074 1139c-1.33 3.99-3.95 5.556-7.187 8l-3.848 2.957-1.997 1.526a373.518 373.518 0 0 0-5.59 4.404c-7.213 5.778-14.538 11.2-22.378 16.113l-2.131 1.347c-25.722 16.163-54.06 29.675-84.869 31.653l-1.945.16c-26.666 1.166-51.603-12.782-70.961-29.84-7.964-7.565-15.09-16.577-16.531-27.695 1.232-10.21 6.246-17.079 13.937-23.5 41.86-32.51 83.364-33.018 128.559-8.295ZM1268 424c23.53 9.39 41.484 55.993 51 78 10.514 25.07 16.208 54.194 5.642 80.04-8.9 20.816-25.53 44.56-46.935 53.968-5.737 1.626-12.12 2.062-17.652-.227-19.767-11.526-31.774-37.642-37.54-58.711-3.584-14.401-3.421-33.005 1.485-47.07l1.184-3.508c4.631-12.57 11.775-23.599 18.816-34.93 1.34-2.183 2.672-4.371 4-6.562l1.204-1.97c9.71-16.047 17.226-34.173 18.421-53.092l.227-3.41L1268 424ZM1028 871h3c8.086 32.761 11.277 70.847 4 104l-.552 2.64c-5.636 26.67-16.115 49.27-39.489 64.796-15.787 10.237-37.464 21.787-56.959 19.564-6.467-1.472-12.643-3.716-16.629-9.27-11.783-18.938-9.296-48.708-4.914-69.942C923.07 956.125 944.704 937.884 967 924a678.808 678.808 0 0 1 8.688-5.125c20.593-11.998 36.582-25.165 50.035-45.012C1027 872 1027 872 1028 871ZM324 634l-.219 2.098c-2.746 28.948 4.213 51.455 14.914 78.135C346.55 733.899 350.242 752.94 346 774l-.523 2.969c-5.04 24.35-25.01 48.642-45.082 62.586-5.787 3.492-10.736 4.223-17.395 3.445-13.07-3.512-21.206-13.87-27.818-24.947-5.342-9.28-9.925-18.838-13.182-29.053l-.867-2.648c-7.541-23.916-1.428-48.106 9.605-69.895 8.7-16.57 18.864-31.467 31.262-45.457l2.305-2.64c7.44-8.42 15.289-16.45 23.851-23.731 2.544-2.248 4.876-4.68 7.203-7.149 2.81-2.536 4.842-3.48 8.641-3.48ZM1167.25 1006.063a2553.632 2553.632 0 0 0 15.216 3.498c17.306 3.796 36.98 4.869 54.128-.002C1239 1009 1239 1009 1242 1010a4448.455 4448.455 0 0 1-14 19l-1.451 1.966c-6.326 8.543-13.164 16.412-20.549 24.034l-2.408 2.49a1583.551 1583.551 0 0 1-8.155 8.322l-2.612 2.678c-21.484 21.592-52.25 39.655-83.263 39.76-25.673-.012-51.933-9.075-70.566-27.2-4.62-5.132-6.514-9.66-6.297-16.609 2.139-17.36 19.187-33.922 32.301-44.316 10.497-8.047 21.583-13.719 34-18.125l2.883-1.04c21.27-6.483 44.501.227 65.367 5.102ZM363 783h3l.5 1.781c3.68 12.888 7.778 24.225 15.5 35.219l2.152 3.125c6.421 8.917 13.956 16.8 21.567 24.695 20.613 21.765 34.375 44.196 33.558 74.883-.968 22.236-7.58 48.12-23.316 64.55-4.972 4.428-10.006 5.272-16.438 5.02C385.614 990.766 372.52 980.513 362 972l-2.617-2.113C349.37 961.356 341.666 950.857 336 939l-1.367-2.824c-15.934-35.308-3.552-78.476 9.098-112.908C356.089 790.827 356.089 790.827 363 783ZM627 1122c8.011 6.208 15.505 12.893 17.426 23.309.67 11.058-6.673 19.288-13.54 27.093-18.28 19.449-43.378 30.452-69.71 32.856-12.285.284-24.514-2.681-36.176-6.258l-2.209-.674c-10.655-3.327-20.78-7.522-30.854-12.326l-3.097-1.473c-10.45-5.102-19.913-11.39-29.215-18.34l-2.472-1.836A2202.077 2202.077 0 0 1 450 1159l-1.982-1.485c-15.993-12.011-15.993-12.011-20.018-16.515v-3l3.637-.043c26.934-.634 48.405-9.996 71.812-22.531A545.446 545.446 0 0 1 524 1105l2.547-1.242c34.085-15.162 71.846-2.947 100.453 18.242ZM1354 589c3 1 3 1 4.283 3.056l1.283 2.745 1.457 3.107 1.54 3.404 1.602 3.524C1373.39 625.508 1380.64 646.76 1385 669l.587 2.867c1.714 9.46 1.751 18.873 1.729 28.454-.004 2.806.02 5.611.045 8.417.032 9.132-.016 17.618-3.361 26.262l-.878 2.298c-.926 2.305-1.996 4.488-3.122 6.702l-1.613 3.215c-4.838 9.235-10.971 16.508-18.387 23.785l-2.758 2.719c-12.03 11.364-28.105 23.93-45.304 24.718-7.18-.288-11.889-3.062-16.938-8.062-16.871-20.22-20.725-51.659-18.723-76.867 3.484-25.02 21.479-44.654 38.91-61.633 3.804-3.748 7.135-7.804 10.461-11.977a157.495 157.495 0 0 1 4.829-5.671C1342.18 621 1348.35 605.547 1354 589ZM1178 634c11.66 4.892 21.57 17.365 30.375 26.125l2.771 2.743c15.048 15.117 28.008 32.471 37.922 51.367.845 1.6 1.722 3.182 2.604 4.761 10.294 19.13 15.203 42.604 9.703 63.942A204.667 204.667 0 0 1 1259 790l-.682 2.002c-6.213 18.227-16.791 40.546-34.818 49.623-7.25 2.641-13.278 2.254-20.313-.875-21.523-11.77-39.598-37.741-47.14-60.645-2.08-7.817-2.352-15.488-2.422-23.543l-.042-3.064c.085-13.834 3.723-26.31 8.667-39.123.99-2.624 1.971-5.252 2.953-7.879l.732-1.947c8.86-23.63 14.676-45.205 12.065-70.549ZM1359 800c-1.768 46.058-18.564 102.08-52.75 134.813-22.161 18.876-50.982 24.083-79.25 22.187-8.851-.962-17.767-2.822-23.75-9.875l-1.734-1.992c-5.602-7.882-4.115-17.481-2.782-26.543 3.258-19.136 10.34-38.777 23.266-53.59l2.14-2.582c17.146-19.993 39.909-26.597 64.672-32.574l2.332-.563 2.355-.569c14.366-3.472 28.287-6.871 41.501-13.712l3.441-1.773c6.037-3.34 11.352-7.25 16.598-11.723C1357 800 1357 800 1359 800ZM471 871h3a106.465 106.465 0 0 1 4.813 7.563c11.3 19.268 30.484 31.037 49.37 42.171 27.15 16.04 48.222 33.759 56.505 65.453 5.063 20.224 5.486 47.157-4.688 65.813-4.056 4.732-9.599 9.224-16 10-20.226 1.498-43.043-9.055-59-21l-2.41-1.797c-20.884-16.14-31.61-35.261-35.59-61.203l-.394-2.542c-1.679-11.048-3.178-22.1-3.53-33.281a226.195 226.195 0 0 0-.207-4.55c-.77-14.528.831-28.481 3.006-42.814l.409-2.71c.393-2.571.797-5.14 1.208-7.708l.367-2.343c.648-3.913 1.485-7.44 3.141-11.052Z" fill="#090"/></svg>