<?xml version="1.0" standalone="no"?>
<svg viewBox="0 0 200 200" xmlns="http://www.w3.org/2000/svg">
  <path fill="#FF5959" d="M31.7,-51.8C42,-42.8,51.9,-35.5,61.9,-24.9C72,-14.3,82.4,-0.5,80,11.1C77.7,22.7,62.7,32,49.7,37.9C36.6,43.8,25.4,46.1,14.9,47.9C4.4,49.7,-5.5,50.9,-14.4,48.6C-23.4,46.2,-31.4,40.2,-44.4,33.7C-57.3,27.3,-75,20.3,-82,8.4C-89,-3.5,-85.2,-20.3,-77.3,-34.3C-69.3,-48.2,-57.2,-59.2,-43.7,-66.8C-30.1,-74.4,-15.1,-78.4,-2.2,-75.1C10.7,-71.7,21.5,-60.9,31.7,-51.8Z" transform="translate(100 100)" />
</svg>
